<svg xmlns="http://www.w3.org/2000/svg" viewBox="0 0 400 520" width="400" height="520"><defs><linearGradient id="g" x1="0" y1="0" x2="0.3" y2="1"><stop offset="0%" stop-color="#ffffff"/><stop offset="35%" stop-color="#9aa1a8"/><stop offset="60%" stop-color="#4a5057"/><stop offset="100%" stop-color="#e6eaee"/></linearGradient><radialGradient id="bg" cx="50%" cy="42%" r="62%"><stop offset="0%" stop-color="#151517"/><stop offset="100%" stop-color="#060607"/></radialGradient></defs><rect width="400" height="520" fill="url(#bg)"/><circle cx="200" cy="260" r="140" fill="none" stroke="#ffffff" stroke-opacity="0.07"/><path d="M191.0,270.7 Q249.7,340.8 314.9,356.4 Q274.1,311.7 209.0,249.3 Z" fill="url(#g)"/><path d="M186.2,257.6 Q151.0,365.3 167.5,444.2 Q188.4,371.9 213.8,262.4 Z" fill="url(#g)"/><path d="M195.2,246.8 Q63.4,277.8 -10.5,336.6 Q76.4,313.5 204.8,273.2 Z" fill="url(#g)"/><path d="M209.0,249.3 Q140.7,171.1 69.0,150.1 Q116.3,200.2 191.0,270.7 Z" fill="url(#g)"/><path d="M213.8,262.4 Q251.2,142.3 236.1,55.2 Q213.8,135.7 186.2,257.6 Z" fill="url(#g)"/><path d="M204.8,273.2 Q297.7,256.4 345.7,207.0 Q284.7,220.7 195.2,246.8 Z" fill="url(#g)"/><circle cx="200" cy="260" r="26" fill="#060607" stroke="url(#g)" stroke-width="2"/><text x="200" y="498" font-family="monospace" font-size="13" letter-spacing="3" fill="#5a6067" text-anchor="middle">DEMO 04</text></svg>